<?xml version="1.0" encoding="UTF-8" ?>
<svg version="1.1" width="114" height="56" xmlns="http://www.w3.org/2000/svg" shape-rendering="crispEdges">
<rect x="0" y="0" width="1" height="1" fill="#595652" />
<rect x="1" y="0" width="1" height="1" fill="#595652" />
<rect x="4" y="0" width="1" height="1" fill="#595652" />
<rect x="5" y="0" width="1" height="1" fill="#595652" />
<rect x="8" y="0" width="1" height="1" fill="#595652" />
<rect x="9" y="0" width="1" height="1" fill="#595652" />
<rect x="12" y="0" width="1" height="1" fill="#595652" />
<rect x="13" y="0" width="1" height="1" fill="#595652" />
<rect x="16" y="0" width="1" height="1" fill="#595652" />
<rect x="17" y="0" width="1" height="1" fill="#595652" />
<rect x="20" y="0" width="1" height="1" fill="#595652" />
<rect x="21" y="0" width="1" height="1" fill="#595652" />
<rect x="24" y="0" width="1" height="1" fill="#595652" />
<rect x="25" y="0" width="1" height="1" fill="#595652" />
<rect x="28" y="0" width="1" height="1" fill="#595652" />
<rect x="29" y="0" width="1" height="1" fill="#595652" />
<rect x="32" y="0" width="1" height="1" fill="#595652" />
<rect x="33" y="0" width="1" height="1" fill="#595652" />
<rect x="36" y="0" width="1" height="1" fill="#595652" />
<rect x="37" y="0" width="1" height="1" fill="#595652" />
<rect x="40" y="0" width="1" height="1" fill="#595652" />
<rect x="41" y="0" width="1" height="1" fill="#595652" />
<rect x="44" y="0" width="1" height="1" fill="#595652" />
<rect x="45" y="0" width="1" height="1" fill="#595652" />
<rect x="48" y="0" width="1" height="1" fill="#595652" />
<rect x="49" y="0" width="1" height="1" fill="#595652" />
<rect x="52" y="0" width="1" height="1" fill="#595652" />
<rect x="53" y="0" width="1" height="1" fill="#595652" />
<rect x="56" y="0" width="1" height="1" fill="#595652" />
<rect x="57" y="0" width="1" height="1" fill="#595652" />
<rect x="60" y="0" width="1" height="1" fill="#595652" />
<rect x="61" y="0" width="1" height="1" fill="#595652" />
<rect x="64" y="0" width="1" height="1" fill="#595652" />
<rect x="65" y="0" width="1" height="1" fill="#595652" />
<rect x="68" y="0" width="1" height="1" fill="#595652" />
<rect x="69" y="0" width="1" height="1" fill="#595652" />
<rect x="72" y="0" width="1" height="1" fill="#595652" />
<rect x="73" y="0" width="1" height="1" fill="#595652" />
<rect x="76" y="0" width="1" height="1" fill="#595652" />
<rect x="77" y="0" width="1" height="1" fill="#595652" />
<rect x="80" y="0" width="1" height="1" fill="#595652" />
<rect x="81" y="0" width="1" height="1" fill="#595652" />
<rect x="84" y="0" width="1" height="1" fill="#595652" />
<rect x="85" y="0" width="1" height="1" fill="#595652" />
<rect x="88" y="0" width="1" height="1" fill="#595652" />
<rect x="89" y="0" width="1" height="1" fill="#595652" />
<rect x="92" y="0" width="1" height="1" fill="#595652" />
<rect x="93" y="0" width="1" height="1" fill="#595652" />
<rect x="96" y="0" width="1" height="1" fill="#595652" />
<rect x="97" y="0" width="1" height="1" fill="#595652" />
<rect x="100" y="0" width="1" height="1" fill="#595652" />
<rect x="101" y="0" width="1" height="1" fill="#595652" />
<rect x="104" y="0" width="1" height="1" fill="#595652" />
<rect x="105" y="0" width="1" height="1" fill="#595652" />
<rect x="108" y="0" width="1" height="1" fill="#595652" />
<rect x="109" y="0" width="1" height="1" fill="#595652" />
<rect x="112" y="0" width="1" height="1" fill="#595652" />
<rect x="113" y="0" width="1" height="1" fill="#595652" />
<rect x="0" y="1" width="1" height="1" fill="#595652" />
<rect x="1" y="1" width="1" height="1" fill="#595652" />
<rect x="4" y="1" width="1" height="1" fill="#595652" />
<rect x="5" y="1" width="1" height="1" fill="#595652" />
<rect x="8" y="1" width="1" height="1" fill="#595652" />
<rect x="9" y="1" width="1" height="1" fill="#595652" />
<rect x="12" y="1" width="1" height="1" fill="#595652" />
<rect x="13" y="1" width="1" height="1" fill="#595652" />
<rect x="16" y="1" width="1" height="1" fill="#595652" />
<rect x="17" y="1" width="1" height="1" fill="#595652" />
<rect x="20" y="1" width="1" height="1" fill="#595652" />
<rect x="21" y="1" width="1" height="1" fill="#595652" />
<rect x="24" y="1" width="1" height="1" fill="#595652" />
<rect x="25" y="1" width="1" height="1" fill="#595652" />
<rect x="28" y="1" width="1" height="1" fill="#595652" />
<rect x="29" y="1" width="1" height="1" fill="#595652" />
<rect x="32" y="1" width="1" height="1" fill="#595652" />
<rect x="33" y="1" width="1" height="1" fill="#595652" />
<rect x="36" y="1" width="1" height="1" fill="#595652" />
<rect x="37" y="1" width="1" height="1" fill="#595652" />
<rect x="40" y="1" width="1" height="1" fill="#595652" />
<rect x="41" y="1" width="1" height="1" fill="#595652" />
<rect x="44" y="1" width="1" height="1" fill="#595652" />
<rect x="45" y="1" width="1" height="1" fill="#595652" />
<rect x="48" y="1" width="1" height="1" fill="#595652" />
<rect x="49" y="1" width="1" height="1" fill="#595652" />
<rect x="52" y="1" width="1" height="1" fill="#595652" />
<rect x="53" y="1" width="1" height="1" fill="#595652" />
<rect x="56" y="1" width="1" height="1" fill="#595652" />
<rect x="57" y="1" width="1" height="1" fill="#595652" />
<rect x="60" y="1" width="1" height="1" fill="#595652" />
<rect x="61" y="1" width="1" height="1" fill="#595652" />
<rect x="64" y="1" width="1" height="1" fill="#595652" />
<rect x="65" y="1" width="1" height="1" fill="#595652" />
<rect x="68" y="1" width="1" height="1" fill="#595652" />
<rect x="69" y="1" width="1" height="1" fill="#595652" />
<rect x="72" y="1" width="1" height="1" fill="#595652" />
<rect x="73" y="1" width="1" height="1" fill="#595652" />
<rect x="76" y="1" width="1" height="1" fill="#595652" />
<rect x="77" y="1" width="1" height="1" fill="#595652" />
<rect x="80" y="1" width="1" height="1" fill="#595652" />
<rect x="81" y="1" width="1" height="1" fill="#595652" />
<rect x="84" y="1" width="1" height="1" fill="#595652" />
<rect x="85" y="1" width="1" height="1" fill="#595652" />
<rect x="88" y="1" width="1" height="1" fill="#595652" />
<rect x="89" y="1" width="1" height="1" fill="#595652" />
<rect x="92" y="1" width="1" height="1" fill="#595652" />
<rect x="93" y="1" width="1" height="1" fill="#595652" />
<rect x="96" y="1" width="1" height="1" fill="#595652" />
<rect x="97" y="1" width="1" height="1" fill="#595652" />
<rect x="100" y="1" width="1" height="1" fill="#595652" />
<rect x="101" y="1" width="1" height="1" fill="#595652" />
<rect x="104" y="1" width="1" height="1" fill="#595652" />
<rect x="105" y="1" width="1" height="1" fill="#595652" />
<rect x="108" y="1" width="1" height="1" fill="#595652" />
<rect x="109" y="1" width="1" height="1" fill="#595652" />
<rect x="112" y="1" width="1" height="1" fill="#595652" />
<rect x="113" y="1" width="1" height="1" fill="#595652" />
<rect x="2" y="2" width="1" height="1" fill="#595652" />
<rect x="3" y="2" width="1" height="1" fill="#595652" />
<rect x="6" y="2" width="1" height="1" fill="#595652" />
<rect x="7" y="2" width="1" height="1" fill="#595652" />
<rect x="10" y="2" width="1" height="1" fill="#595652" />
<rect x="11" y="2" width="1" height="1" fill="#595652" />
<rect x="14" y="2" width="1" height="1" fill="#595652" />
<rect x="15" y="2" width="1" height="1" fill="#595652" />
<rect x="18" y="2" width="1" height="1" fill="#595652" />
<rect x="19" y="2" width="1" height="1" fill="#595652" />
<rect x="22" y="2" width="1" height="1" fill="#595652" />
<rect x="23" y="2" width="1" height="1" fill="#595652" />
<rect x="26" y="2" width="1" height="1" fill="#595652" />
<rect x="27" y="2" width="1" height="1" fill="#595652" />
<rect x="30" y="2" width="1" height="1" fill="#595652" />
<rect x="31" y="2" width="1" height="1" fill="#595652" />
<rect x="34" y="2" width="1" height="1" fill="#595652" />
<rect x="35" y="2" width="1" height="1" fill="#595652" />
<rect x="38" y="2" width="1" height="1" fill="#595652" />
<rect x="39" y="2" width="1" height="1" fill="#595652" />
<rect x="42" y="2" width="1" height="1" fill="#595652" />
<rect x="43" y="2" width="1" height="1" fill="#595652" />
<rect x="46" y="2" width="1" height="1" fill="#595652" />
<rect x="47" y="2" width="1" height="1" fill="#595652" />
<rect x="50" y="2" width="1" height="1" fill="#595652" />
<rect x="51" y="2" width="1" height="1" fill="#595652" />
<rect x="54" y="2" width="1" height="1" fill="#595652" />
<rect x="55" y="2" width="1" height="1" fill="#595652" />
<rect x="58" y="2" width="1" height="1" fill="#595652" />
<rect x="59" y="2" width="1" height="1" fill="#595652" />
<rect x="62" y="2" width="1" height="1" fill="#595652" />
<rect x="63" y="2" width="1" height="1" fill="#595652" />
<rect x="66" y="2" width="1" height="1" fill="#595652" />
<rect x="67" y="2" width="1" height="1" fill="#595652" />
<rect x="70" y="2" width="1" height="1" fill="#595652" />
<rect x="71" y="2" width="1" height="1" fill="#595652" />
<rect x="74" y="2" width="1" height="1" fill="#595652" />
<rect x="75" y="2" width="1" height="1" fill="#595652" />
<rect x="78" y="2" width="1" height="1" fill="#595652" />
<rect x="79" y="2" width="1" height="1" fill="#595652" />
<rect x="82" y="2" width="1" height="1" fill="#595652" />
<rect x="83" y="2" width="1" height="1" fill="#595652" />
<rect x="86" y="2" width="1" height="1" fill="#595652" />
<rect x="87" y="2" width="1" height="1" fill="#595652" />
<rect x="90" y="2" width="1" height="1" fill="#595652" />
<rect x="91" y="2" width="1" height="1" fill="#595652" />
<rect x="94" y="2" width="1" height="1" fill="#595652" />
<rect x="95" y="2" width="1" height="1" fill="#595652" />
<rect x="98" y="2" width="1" height="1" fill="#595652" />
<rect x="99" y="2" width="1" height="1" fill="#595652" />
<rect x="102" y="2" width="1" height="1" fill="#595652" />
<rect x="103" y="2" width="1" height="1" fill="#595652" />
<rect x="106" y="2" width="1" height="1" fill="#595652" />
<rect x="107" y="2" width="1" height="1" fill="#595652" />
<rect x="110" y="2" width="1" height="1" fill="#595652" />
<rect x="111" y="2" width="1" height="1" fill="#595652" />
<rect x="2" y="3" width="1" height="1" fill="#595652" />
<rect x="3" y="3" width="1" height="1" fill="#595652" />
<rect x="6" y="3" width="1" height="1" fill="#595652" />
<rect x="7" y="3" width="1" height="1" fill="#595652" />
<rect x="10" y="3" width="1" height="1" fill="#595652" />
<rect x="11" y="3" width="1" height="1" fill="#595652" />
<rect x="14" y="3" width="1" height="1" fill="#595652" />
<rect x="15" y="3" width="1" height="1" fill="#595652" />
<rect x="18" y="3" width="1" height="1" fill="#595652" />
<rect x="19" y="3" width="1" height="1" fill="#595652" />
<rect x="22" y="3" width="1" height="1" fill="#595652" />
<rect x="23" y="3" width="1" height="1" fill="#595652" />
<rect x="26" y="3" width="1" height="1" fill="#595652" />
<rect x="27" y="3" width="1" height="1" fill="#595652" />
<rect x="30" y="3" width="1" height="1" fill="#595652" />
<rect x="31" y="3" width="1" height="1" fill="#595652" />
<rect x="34" y="3" width="1" height="1" fill="#595652" />
<rect x="35" y="3" width="1" height="1" fill="#595652" />
<rect x="38" y="3" width="1" height="1" fill="#595652" />
<rect x="39" y="3" width="1" height="1" fill="#595652" />
<rect x="42" y="3" width="1" height="1" fill="#595652" />
<rect x="43" y="3" width="1" height="1" fill="#595652" />
<rect x="46" y="3" width="1" height="1" fill="#595652" />
<rect x="47" y="3" width="1" height="1" fill="#595652" />
<rect x="50" y="3" width="1" height="1" fill="#595652" />
<rect x="51" y="3" width="1" height="1" fill="#595652" />
<rect x="54" y="3" width="1" height="1" fill="#595652" />
<rect x="55" y="3" width="1" height="1" fill="#595652" />
<rect x="58" y="3" width="1" height="1" fill="#595652" />
<rect x="59" y="3" width="1" height="1" fill="#595652" />
<rect x="62" y="3" width="1" height="1" fill="#595652" />
<rect x="63" y="3" width="1" height="1" fill="#595652" />
<rect x="66" y="3" width="1" height="1" fill="#595652" />
<rect x="67" y="3" width="1" height="1" fill="#595652" />
<rect x="70" y="3" width="1" height="1" fill="#595652" />
<rect x="71" y="3" width="1" height="1" fill="#595652" />
<rect x="74" y="3" width="1" height="1" fill="#595652" />
<rect x="75" y="3" width="1" height="1" fill="#595652" />
<rect x="78" y="3" width="1" height="1" fill="#595652" />
<rect x="79" y="3" width="1" height="1" fill="#595652" />
<rect x="82" y="3" width="1" height="1" fill="#595652" />
<rect x="83" y="3" width="1" height="1" fill="#595652" />
<rect x="86" y="3" width="1" height="1" fill="#595652" />
<rect x="87" y="3" width="1" height="1" fill="#595652" />
<rect x="90" y="3" width="1" height="1" fill="#595652" />
<rect x="91" y="3" width="1" height="1" fill="#595652" />
<rect x="94" y="3" width="1" height="1" fill="#595652" />
<rect x="95" y="3" width="1" height="1" fill="#595652" />
<rect x="98" y="3" width="1" height="1" fill="#595652" />
<rect x="99" y="3" width="1" height="1" fill="#595652" />
<rect x="102" y="3" width="1" height="1" fill="#595652" />
<rect x="103" y="3" width="1" height="1" fill="#595652" />
<rect x="106" y="3" width="1" height="1" fill="#595652" />
<rect x="107" y="3" width="1" height="1" fill="#595652" />
<rect x="110" y="3" width="1" height="1" fill="#595652" />
<rect x="111" y="3" width="1" height="1" fill="#595652" />
<rect x="0" y="4" width="1" height="1" fill="#595652" />
<rect x="1" y="4" width="1" height="1" fill="#595652" />
<rect x="4" y="4" width="1" height="1" fill="#595652" />
<rect x="5" y="4" width="1" height="1" fill="#595652" />
<rect x="0" y="5" width="1" height="1" fill="#595652" />
<rect x="1" y="5" width="1" height="1" fill="#595652" />
<rect x="4" y="5" width="1" height="1" fill="#595652" />
<rect x="5" y="5" width="1" height="1" fill="#595652" />
<rect x="2" y="6" width="1" height="1" fill="#595652" />
<rect x="3" y="6" width="1" height="1" fill="#595652" />
<rect x="2" y="7" width="1" height="1" fill="#595652" />
<rect x="3" y="7" width="1" height="1" fill="#595652" />
<rect x="0" y="8" width="1" height="1" fill="#595652" />
<rect x="1" y="8" width="1" height="1" fill="#595652" />
<rect x="4" y="8" width="1" height="1" fill="#595652" />
<rect x="5" y="8" width="1" height="1" fill="#595652" />
<rect x="0" y="9" width="1" height="1" fill="#595652" />
<rect x="1" y="9" width="1" height="1" fill="#595652" />
<rect x="4" y="9" width="1" height="1" fill="#595652" />
<rect x="5" y="9" width="1" height="1" fill="#595652" />
<rect x="2" y="10" width="1" height="1" fill="#595652" />
<rect x="3" y="10" width="1" height="1" fill="#595652" />
<rect x="2" y="11" width="1" height="1" fill="#595652" />
<rect x="3" y="11" width="1" height="1" fill="#595652" />
<rect x="0" y="12" width="1" height="1" fill="#595652" />
<rect x="1" y="12" width="1" height="1" fill="#595652" />
<rect x="4" y="12" width="1" height="1" fill="#595652" />
<rect x="5" y="12" width="1" height="1" fill="#595652" />
<rect x="0" y="13" width="1" height="1" fill="#595652" />
<rect x="1" y="13" width="1" height="1" fill="#595652" />
<rect x="4" y="13" width="1" height="1" fill="#595652" />
<rect x="5" y="13" width="1" height="1" fill="#595652" />
<rect x="2" y="14" width="1" height="1" fill="#595652" />
<rect x="3" y="14" width="1" height="1" fill="#595652" />
<rect x="2" y="15" width="1" height="1" fill="#595652" />
<rect x="3" y="15" width="1" height="1" fill="#595652" />
<rect x="0" y="16" width="1" height="1" fill="#595652" />
<rect x="1" y="16" width="1" height="1" fill="#595652" />
<rect x="4" y="16" width="1" height="1" fill="#595652" />
<rect x="5" y="16" width="1" height="1" fill="#595652" />
<rect x="0" y="17" width="1" height="1" fill="#595652" />
<rect x="1" y="17" width="1" height="1" fill="#595652" />
<rect x="4" y="17" width="1" height="1" fill="#595652" />
<rect x="5" y="17" width="1" height="1" fill="#595652" />
<rect x="2" y="18" width="1" height="1" fill="#595652" />
<rect x="3" y="18" width="1" height="1" fill="#595652" />
<rect x="2" y="19" width="1" height="1" fill="#595652" />
<rect x="3" y="19" width="1" height="1" fill="#595652" />
<rect x="0" y="20" width="1" height="1" fill="#595652" />
<rect x="1" y="20" width="1" height="1" fill="#595652" />
<rect x="4" y="20" width="1" height="1" fill="#595652" />
<rect x="5" y="20" width="1" height="1" fill="#595652" />
<rect x="0" y="21" width="1" height="1" fill="#595652" />
<rect x="1" y="21" width="1" height="1" fill="#595652" />
<rect x="4" y="21" width="1" height="1" fill="#595652" />
<rect x="5" y="21" width="1" height="1" fill="#595652" />
<rect x="2" y="22" width="1" height="1" fill="#595652" />
<rect x="3" y="22" width="1" height="1" fill="#595652" />
<rect x="2" y="23" width="1" height="1" fill="#595652" />
<rect x="3" y="23" width="1" height="1" fill="#595652" />
<rect x="0" y="24" width="1" height="1" fill="#595652" />
<rect x="1" y="24" width="1" height="1" fill="#595652" />
<rect x="4" y="24" width="1" height="1" fill="#595652" />
<rect x="5" y="24" width="1" height="1" fill="#595652" />
<rect x="0" y="25" width="1" height="1" fill="#595652" />
<rect x="1" y="25" width="1" height="1" fill="#595652" />
<rect x="4" y="25" width="1" height="1" fill="#595652" />
<rect x="5" y="25" width="1" height="1" fill="#595652" />
<rect x="2" y="26" width="1" height="1" fill="#595652" />
<rect x="3" y="26" width="1" height="1" fill="#595652" />
<rect x="2" y="27" width="1" height="1" fill="#595652" />
<rect x="3" y="27" width="1" height="1" fill="#595652" />
<rect x="0" y="28" width="1" height="1" fill="#595652" />
<rect x="1" y="28" width="1" height="1" fill="#595652" />
<rect x="4" y="28" width="1" height="1" fill="#595652" />
<rect x="5" y="28" width="1" height="1" fill="#595652" />
<rect x="0" y="29" width="1" height="1" fill="#595652" />
<rect x="1" y="29" width="1" height="1" fill="#595652" />
<rect x="4" y="29" width="1" height="1" fill="#595652" />
<rect x="5" y="29" width="1" height="1" fill="#595652" />
<rect x="2" y="30" width="1" height="1" fill="#595652" />
<rect x="3" y="30" width="1" height="1" fill="#595652" />
<rect x="2" y="31" width="1" height="1" fill="#595652" />
<rect x="3" y="31" width="1" height="1" fill="#595652" />
<rect x="0" y="32" width="1" height="1" fill="#595652" />
<rect x="1" y="32" width="1" height="1" fill="#595652" />
<rect x="4" y="32" width="1" height="1" fill="#595652" />
<rect x="5" y="32" width="1" height="1" fill="#595652" />
<rect x="0" y="33" width="1" height="1" fill="#595652" />
<rect x="1" y="33" width="1" height="1" fill="#595652" />
<rect x="4" y="33" width="1" height="1" fill="#595652" />
<rect x="5" y="33" width="1" height="1" fill="#595652" />
<rect x="2" y="34" width="1" height="1" fill="#595652" />
<rect x="3" y="34" width="1" height="1" fill="#595652" />
<rect x="2" y="35" width="1" height="1" fill="#595652" />
<rect x="3" y="35" width="1" height="1" fill="#595652" />
<rect x="0" y="36" width="1" height="1" fill="#595652" />
<rect x="1" y="36" width="1" height="1" fill="#595652" />
<rect x="4" y="36" width="1" height="1" fill="#595652" />
<rect x="5" y="36" width="1" height="1" fill="#595652" />
<rect x="0" y="37" width="1" height="1" fill="#595652" />
<rect x="1" y="37" width="1" height="1" fill="#595652" />
<rect x="4" y="37" width="1" height="1" fill="#595652" />
<rect x="5" y="37" width="1" height="1" fill="#595652" />
<rect x="2" y="38" width="1" height="1" fill="#595652" />
<rect x="3" y="38" width="1" height="1" fill="#595652" />
<rect x="2" y="39" width="1" height="1" fill="#595652" />
<rect x="3" y="39" width="1" height="1" fill="#595652" />
<rect x="0" y="40" width="1" height="1" fill="#595652" />
<rect x="1" y="40" width="1" height="1" fill="#595652" />
<rect x="4" y="40" width="1" height="1" fill="#595652" />
<rect x="5" y="40" width="1" height="1" fill="#595652" />
<rect x="0" y="41" width="1" height="1" fill="#595652" />
<rect x="1" y="41" width="1" height="1" fill="#595652" />
<rect x="4" y="41" width="1" height="1" fill="#595652" />
<rect x="5" y="41" width="1" height="1" fill="#595652" />
<rect x="2" y="42" width="1" height="1" fill="#595652" />
<rect x="3" y="42" width="1" height="1" fill="#595652" />
<rect x="2" y="43" width="1" height="1" fill="#595652" />
<rect x="3" y="43" width="1" height="1" fill="#595652" />
<rect x="0" y="44" width="1" height="1" fill="#595652" />
<rect x="1" y="44" width="1" height="1" fill="#595652" />
<rect x="4" y="44" width="1" height="1" fill="#595652" />
<rect x="5" y="44" width="1" height="1" fill="#595652" />
<rect x="0" y="45" width="1" height="1" fill="#595652" />
<rect x="1" y="45" width="1" height="1" fill="#595652" />
<rect x="4" y="45" width="1" height="1" fill="#595652" />
<rect x="5" y="45" width="1" height="1" fill="#595652" />
<rect x="2" y="46" width="1" height="1" fill="#595652" />
<rect x="3" y="46" width="1" height="1" fill="#595652" />
<rect x="2" y="47" width="1" height="1" fill="#595652" />
<rect x="3" y="47" width="1" height="1" fill="#595652" />
<rect x="0" y="48" width="1" height="1" fill="#595652" />
<rect x="1" y="48" width="1" height="1" fill="#595652" />
<rect x="4" y="48" width="1" height="1" fill="#595652" />
<rect x="5" y="48" width="1" height="1" fill="#595652" />
<rect x="0" y="49" width="1" height="1" fill="#595652" />
<rect x="1" y="49" width="1" height="1" fill="#595652" />
<rect x="4" y="49" width="1" height="1" fill="#595652" />
<rect x="5" y="49" width="1" height="1" fill="#595652" />
<rect x="2" y="50" width="1" height="1" fill="#595652" />
<rect x="3" y="50" width="1" height="1" fill="#595652" />
<rect x="2" y="51" width="1" height="1" fill="#595652" />
<rect x="3" y="51" width="1" height="1" fill="#595652" />
<rect x="0" y="52" width="1" height="1" fill="#595652" />
<rect x="1" y="52" width="1" height="1" fill="#595652" />
<rect x="4" y="52" width="1" height="1" fill="#595652" />
<rect x="5" y="52" width="1" height="1" fill="#595652" />
<rect x="8" y="52" width="1" height="1" fill="#595652" />
<rect x="9" y="52" width="1" height="1" fill="#595652" />
<rect x="12" y="52" width="1" height="1" fill="#595652" />
<rect x="13" y="52" width="1" height="1" fill="#595652" />
<rect x="16" y="52" width="1" height="1" fill="#595652" />
<rect x="17" y="52" width="1" height="1" fill="#595652" />
<rect x="20" y="52" width="1" height="1" fill="#595652" />
<rect x="21" y="52" width="1" height="1" fill="#595652" />
<rect x="24" y="52" width="1" height="1" fill="#595652" />
<rect x="25" y="52" width="1" height="1" fill="#595652" />
<rect x="28" y="52" width="1" height="1" fill="#595652" />
<rect x="29" y="52" width="1" height="1" fill="#595652" />
<rect x="32" y="52" width="1" height="1" fill="#595652" />
<rect x="33" y="52" width="1" height="1" fill="#595652" />
<rect x="36" y="52" width="1" height="1" fill="#595652" />
<rect x="37" y="52" width="1" height="1" fill="#595652" />
<rect x="40" y="52" width="1" height="1" fill="#595652" />
<rect x="41" y="52" width="1" height="1" fill="#595652" />
<rect x="44" y="52" width="1" height="1" fill="#595652" />
<rect x="45" y="52" width="1" height="1" fill="#595652" />
<rect x="48" y="52" width="1" height="1" fill="#595652" />
<rect x="49" y="52" width="1" height="1" fill="#595652" />
<rect x="52" y="52" width="1" height="1" fill="#595652" />
<rect x="53" y="52" width="1" height="1" fill="#595652" />
<rect x="56" y="52" width="1" height="1" fill="#595652" />
<rect x="57" y="52" width="1" height="1" fill="#595652" />
<rect x="60" y="52" width="1" height="1" fill="#595652" />
<rect x="61" y="52" width="1" height="1" fill="#595652" />
<rect x="64" y="52" width="1" height="1" fill="#595652" />
<rect x="65" y="52" width="1" height="1" fill="#595652" />
<rect x="68" y="52" width="1" height="1" fill="#595652" />
<rect x="69" y="52" width="1" height="1" fill="#595652" />
<rect x="72" y="52" width="1" height="1" fill="#595652" />
<rect x="73" y="52" width="1" height="1" fill="#595652" />
<rect x="76" y="52" width="1" height="1" fill="#595652" />
<rect x="77" y="52" width="1" height="1" fill="#595652" />
<rect x="80" y="52" width="1" height="1" fill="#595652" />
<rect x="81" y="52" width="1" height="1" fill="#595652" />
<rect x="84" y="52" width="1" height="1" fill="#595652" />
<rect x="85" y="52" width="1" height="1" fill="#595652" />
<rect x="88" y="52" width="1" height="1" fill="#595652" />
<rect x="89" y="52" width="1" height="1" fill="#595652" />
<rect x="92" y="52" width="1" height="1" fill="#595652" />
<rect x="93" y="52" width="1" height="1" fill="#595652" />
<rect x="96" y="52" width="1" height="1" fill="#595652" />
<rect x="97" y="52" width="1" height="1" fill="#595652" />
<rect x="100" y="52" width="1" height="1" fill="#595652" />
<rect x="101" y="52" width="1" height="1" fill="#595652" />
<rect x="104" y="52" width="1" height="1" fill="#595652" />
<rect x="105" y="52" width="1" height="1" fill="#595652" />
<rect x="108" y="52" width="1" height="1" fill="#595652" />
<rect x="109" y="52" width="1" height="1" fill="#595652" />
<rect x="112" y="52" width="1" height="1" fill="#595652" />
<rect x="113" y="52" width="1" height="1" fill="#595652" />
<rect x="0" y="53" width="1" height="1" fill="#595652" />
<rect x="1" y="53" width="1" height="1" fill="#595652" />
<rect x="4" y="53" width="1" height="1" fill="#595652" />
<rect x="5" y="53" width="1" height="1" fill="#595652" />
<rect x="8" y="53" width="1" height="1" fill="#595652" />
<rect x="9" y="53" width="1" height="1" fill="#595652" />
<rect x="12" y="53" width="1" height="1" fill="#595652" />
<rect x="13" y="53" width="1" height="1" fill="#595652" />
<rect x="16" y="53" width="1" height="1" fill="#595652" />
<rect x="17" y="53" width="1" height="1" fill="#595652" />
<rect x="20" y="53" width="1" height="1" fill="#595652" />
<rect x="21" y="53" width="1" height="1" fill="#595652" />
<rect x="24" y="53" width="1" height="1" fill="#595652" />
<rect x="25" y="53" width="1" height="1" fill="#595652" />
<rect x="28" y="53" width="1" height="1" fill="#595652" />
<rect x="29" y="53" width="1" height="1" fill="#595652" />
<rect x="32" y="53" width="1" height="1" fill="#595652" />
<rect x="33" y="53" width="1" height="1" fill="#595652" />
<rect x="36" y="53" width="1" height="1" fill="#595652" />
<rect x="37" y="53" width="1" height="1" fill="#595652" />
<rect x="40" y="53" width="1" height="1" fill="#595652" />
<rect x="41" y="53" width="1" height="1" fill="#595652" />
<rect x="44" y="53" width="1" height="1" fill="#595652" />
<rect x="45" y="53" width="1" height="1" fill="#595652" />
<rect x="48" y="53" width="1" height="1" fill="#595652" />
<rect x="49" y="53" width="1" height="1" fill="#595652" />
<rect x="52" y="53" width="1" height="1" fill="#595652" />
<rect x="53" y="53" width="1" height="1" fill="#595652" />
<rect x="56" y="53" width="1" height="1" fill="#595652" />
<rect x="57" y="53" width="1" height="1" fill="#595652" />
<rect x="60" y="53" width="1" height="1" fill="#595652" />
<rect x="61" y="53" width="1" height="1" fill="#595652" />
<rect x="64" y="53" width="1" height="1" fill="#595652" />
<rect x="65" y="53" width="1" height="1" fill="#595652" />
<rect x="68" y="53" width="1" height="1" fill="#595652" />
<rect x="69" y="53" width="1" height="1" fill="#595652" />
<rect x="72" y="53" width="1" height="1" fill="#595652" />
<rect x="73" y="53" width="1" height="1" fill="#595652" />
<rect x="76" y="53" width="1" height="1" fill="#595652" />
<rect x="77" y="53" width="1" height="1" fill="#595652" />
<rect x="80" y="53" width="1" height="1" fill="#595652" />
<rect x="81" y="53" width="1" height="1" fill="#595652" />
<rect x="84" y="53" width="1" height="1" fill="#595652" />
<rect x="85" y="53" width="1" height="1" fill="#595652" />
<rect x="88" y="53" width="1" height="1" fill="#595652" />
<rect x="89" y="53" width="1" height="1" fill="#595652" />
<rect x="92" y="53" width="1" height="1" fill="#595652" />
<rect x="93" y="53" width="1" height="1" fill="#595652" />
<rect x="96" y="53" width="1" height="1" fill="#595652" />
<rect x="97" y="53" width="1" height="1" fill="#595652" />
<rect x="100" y="53" width="1" height="1" fill="#595652" />
<rect x="101" y="53" width="1" height="1" fill="#595652" />
<rect x="104" y="53" width="1" height="1" fill="#595652" />
<rect x="105" y="53" width="1" height="1" fill="#595652" />
<rect x="108" y="53" width="1" height="1" fill="#595652" />
<rect x="109" y="53" width="1" height="1" fill="#595652" />
<rect x="112" y="53" width="1" height="1" fill="#595652" />
<rect x="113" y="53" width="1" height="1" fill="#595652" />
<rect x="2" y="54" width="1" height="1" fill="#595652" />
<rect x="3" y="54" width="1" height="1" fill="#595652" />
<rect x="6" y="54" width="1" height="1" fill="#595652" />
<rect x="7" y="54" width="1" height="1" fill="#595652" />
<rect x="10" y="54" width="1" height="1" fill="#595652" />
<rect x="11" y="54" width="1" height="1" fill="#595652" />
<rect x="14" y="54" width="1" height="1" fill="#595652" />
<rect x="15" y="54" width="1" height="1" fill="#595652" />
<rect x="18" y="54" width="1" height="1" fill="#595652" />
<rect x="19" y="54" width="1" height="1" fill="#595652" />
<rect x="22" y="54" width="1" height="1" fill="#595652" />
<rect x="23" y="54" width="1" height="1" fill="#595652" />
<rect x="26" y="54" width="1" height="1" fill="#595652" />
<rect x="27" y="54" width="1" height="1" fill="#595652" />
<rect x="30" y="54" width="1" height="1" fill="#595652" />
<rect x="31" y="54" width="1" height="1" fill="#595652" />
<rect x="34" y="54" width="1" height="1" fill="#595652" />
<rect x="35" y="54" width="1" height="1" fill="#595652" />
<rect x="38" y="54" width="1" height="1" fill="#595652" />
<rect x="39" y="54" width="1" height="1" fill="#595652" />
<rect x="42" y="54" width="1" height="1" fill="#595652" />
<rect x="43" y="54" width="1" height="1" fill="#595652" />
<rect x="46" y="54" width="1" height="1" fill="#595652" />
<rect x="47" y="54" width="1" height="1" fill="#595652" />
<rect x="50" y="54" width="1" height="1" fill="#595652" />
<rect x="51" y="54" width="1" height="1" fill="#595652" />
<rect x="54" y="54" width="1" height="1" fill="#595652" />
<rect x="55" y="54" width="1" height="1" fill="#595652" />
<rect x="58" y="54" width="1" height="1" fill="#595652" />
<rect x="59" y="54" width="1" height="1" fill="#595652" />
<rect x="62" y="54" width="1" height="1" fill="#595652" />
<rect x="63" y="54" width="1" height="1" fill="#595652" />
<rect x="66" y="54" width="1" height="1" fill="#595652" />
<rect x="67" y="54" width="1" height="1" fill="#595652" />
<rect x="70" y="54" width="1" height="1" fill="#595652" />
<rect x="71" y="54" width="1" height="1" fill="#595652" />
<rect x="74" y="54" width="1" height="1" fill="#595652" />
<rect x="75" y="54" width="1" height="1" fill="#595652" />
<rect x="78" y="54" width="1" height="1" fill="#595652" />
<rect x="79" y="54" width="1" height="1" fill="#595652" />
<rect x="82" y="54" width="1" height="1" fill="#595652" />
<rect x="83" y="54" width="1" height="1" fill="#595652" />
<rect x="86" y="54" width="1" height="1" fill="#595652" />
<rect x="87" y="54" width="1" height="1" fill="#595652" />
<rect x="90" y="54" width="1" height="1" fill="#595652" />
<rect x="91" y="54" width="1" height="1" fill="#595652" />
<rect x="94" y="54" width="1" height="1" fill="#595652" />
<rect x="95" y="54" width="1" height="1" fill="#595652" />
<rect x="98" y="54" width="1" height="1" fill="#595652" />
<rect x="99" y="54" width="1" height="1" fill="#595652" />
<rect x="102" y="54" width="1" height="1" fill="#595652" />
<rect x="103" y="54" width="1" height="1" fill="#595652" />
<rect x="106" y="54" width="1" height="1" fill="#595652" />
<rect x="107" y="54" width="1" height="1" fill="#595652" />
<rect x="110" y="54" width="1" height="1" fill="#595652" />
<rect x="111" y="54" width="1" height="1" fill="#595652" />
<rect x="2" y="55" width="1" height="1" fill="#595652" />
<rect x="3" y="55" width="1" height="1" fill="#595652" />
<rect x="6" y="55" width="1" height="1" fill="#595652" />
<rect x="7" y="55" width="1" height="1" fill="#595652" />
<rect x="10" y="55" width="1" height="1" fill="#595652" />
<rect x="11" y="55" width="1" height="1" fill="#595652" />
<rect x="14" y="55" width="1" height="1" fill="#595652" />
<rect x="15" y="55" width="1" height="1" fill="#595652" />
<rect x="18" y="55" width="1" height="1" fill="#595652" />
<rect x="19" y="55" width="1" height="1" fill="#595652" />
<rect x="22" y="55" width="1" height="1" fill="#595652" />
<rect x="23" y="55" width="1" height="1" fill="#595652" />
<rect x="26" y="55" width="1" height="1" fill="#595652" />
<rect x="27" y="55" width="1" height="1" fill="#595652" />
<rect x="30" y="55" width="1" height="1" fill="#595652" />
<rect x="31" y="55" width="1" height="1" fill="#595652" />
<rect x="34" y="55" width="1" height="1" fill="#595652" />
<rect x="35" y="55" width="1" height="1" fill="#595652" />
<rect x="38" y="55" width="1" height="1" fill="#595652" />
<rect x="39" y="55" width="1" height="1" fill="#595652" />
<rect x="42" y="55" width="1" height="1" fill="#595652" />
<rect x="43" y="55" width="1" height="1" fill="#595652" />
<rect x="46" y="55" width="1" height="1" fill="#595652" />
<rect x="47" y="55" width="1" height="1" fill="#595652" />
<rect x="50" y="55" width="1" height="1" fill="#595652" />
<rect x="51" y="55" width="1" height="1" fill="#595652" />
<rect x="54" y="55" width="1" height="1" fill="#595652" />
<rect x="55" y="55" width="1" height="1" fill="#595652" />
<rect x="58" y="55" width="1" height="1" fill="#595652" />
<rect x="59" y="55" width="1" height="1" fill="#595652" />
<rect x="62" y="55" width="1" height="1" fill="#595652" />
<rect x="63" y="55" width="1" height="1" fill="#595652" />
<rect x="66" y="55" width="1" height="1" fill="#595652" />
<rect x="67" y="55" width="1" height="1" fill="#595652" />
<rect x="70" y="55" width="1" height="1" fill="#595652" />
<rect x="71" y="55" width="1" height="1" fill="#595652" />
<rect x="74" y="55" width="1" height="1" fill="#595652" />
<rect x="75" y="55" width="1" height="1" fill="#595652" />
<rect x="78" y="55" width="1" height="1" fill="#595652" />
<rect x="79" y="55" width="1" height="1" fill="#595652" />
<rect x="82" y="55" width="1" height="1" fill="#595652" />
<rect x="83" y="55" width="1" height="1" fill="#595652" />
<rect x="86" y="55" width="1" height="1" fill="#595652" />
<rect x="87" y="55" width="1" height="1" fill="#595652" />
<rect x="90" y="55" width="1" height="1" fill="#595652" />
<rect x="91" y="55" width="1" height="1" fill="#595652" />
<rect x="94" y="55" width="1" height="1" fill="#595652" />
<rect x="95" y="55" width="1" height="1" fill="#595652" />
<rect x="98" y="55" width="1" height="1" fill="#595652" />
<rect x="99" y="55" width="1" height="1" fill="#595652" />
<rect x="102" y="55" width="1" height="1" fill="#595652" />
<rect x="103" y="55" width="1" height="1" fill="#595652" />
<rect x="106" y="55" width="1" height="1" fill="#595652" />
<rect x="107" y="55" width="1" height="1" fill="#595652" />
<rect x="110" y="55" width="1" height="1" fill="#595652" />
<rect x="111" y="55" width="1" height="1" fill="#595652" />
</svg>